<svg xmlns="http://www.w3.org/2000/svg" width="39" height="29" viewBox="0 0 39 29">
  <g id="icon" transform="translate(49)">
    <rect id="Guide_box" data-name="Guide box" width="39" height="29" transform="translate(-49)" fill="none"/>
    <g id="그룹_8" data-name="그룹 8" transform="translate(-44.477 -0.083)">
      <path id="패스_52" data-name="패스 52" d="M14.828,1.342a1.037,1.037,0,0,0-1.6,0L3.7,12.448a1.654,1.654,0,0,0-.086,1.937l9.7,13.4a.839.839,0,0,0,1.444,0l9.687-13.413a1.654,1.654,0,0,0-.086-1.937Z" transform="translate(0 0)" fill="none" stroke="#000" stroke-linecap="round" stroke-linejoin="round" stroke-width="0.8"/>
      <g id="그룹_7" data-name="그룹 7" transform="translate(3.34 0.96)">
        <path id="패스_53" data-name="패스 53" d="M8.02,15.225,12.907.96l4.936,14.265Z" transform="translate(-2.245 -0.96)" fill="none" stroke="#000" stroke-linecap="round" stroke-linejoin="round" stroke-width="0.8"/>
        <line id="선_31" data-name="선 31" y1="1.728" x2="5.775" transform="translate(15.597 12.537)" fill="none" stroke="#000" stroke-linecap="round" stroke-linejoin="round" stroke-width="0.8"/>
        <path id="패스_54" data-name="패스 54" d="M17.842,12.52,12.907,25.5,8.02,12.52Z" transform="translate(-2.245 1.745)" fill="none" stroke="#000" stroke-linecap="round" stroke-linejoin="round" stroke-width="0.8"/>
        <line id="선_32" data-name="선 32" x1="5.775" y1="1.728" transform="translate(0 12.537)" fill="none" stroke="#000" stroke-linecap="round" stroke-linejoin="round" stroke-width="0.8"/>
      </g>
    </g>
  </g>
</svg>
