<svg xmlns="http://www.w3.org/2000/svg" width="2087.147" height="539.14117" overflow="hidden"><defs><clipPath id="a"><path d="M-1-1h722v722H-1z"/></clipPath></defs><g fill-rule="evenodd" clip-path="url(#a)" transform="scale(.7488)"><path fill="#fff" d="M720 360.049C720 558.784 558.762 720 360 720 161.238 719.902 0 558.784 0 360.049 0 161.118 161.238 0 360 0c198.86 0 360 161.118 360 360.049"/><path fill="#e4032e" d="M685.033 259.557C665.175 193.021 572.144 62 405.158 62 247.563 62 138 180.71 138 287.208c0 19.736 1.174 28.627 6.065 47.19a98.471 98.471 0 0 1-3.032-24.23c0-110.992 111.226-187.885 225.68-187.885 154.856 0 280.364 125.354 280.364 280.02 0 121.25-69.846 226.184-171.29 276.599V679C606.578 631.614 700 506.455 700 359.508c0-34.782-4.695-65.461-14.967-99.951"/><path fill="#003764" d="M529.428 334.603c-57.32-38.898-130.78-23.065-169.32 35.477-32.084 48.866-80.699 55.024-99.479 55.024-61.331 0-103.295-43.101-115.717-87.667a6.324 6.324 0 0 1-.392-1.27 11.924 11.924 0 0 0-.391-1.564c-4.891-18.569-6.065-27.463-6.065-47.205 0-106.627 109.457-225.275 267.137-225.275 161.495 0 253.932 122.753 277.799 191.068-.489-1.27-.88-2.443-1.174-3.616C635.853 115.974 509.18 20 359.912 20 172.202 20 20 172.073 20 359.72 20 527.43 141.097 671 308.95 671c133.911 0 224-75.059 265.18-178.461 22.694-56.587 6.652-123.045-44.702-157.936"/></g><g style="font-size:40px;font-family:ROKG;fill:#58595b"><path d="M816.519 92.277v61.78h-24.61v-39.12H663.386v-22.66zM727.876 223.71v-30.294h-78.617v-22.66h182.3v22.66h-78.845v30.294h64.26v72.514h-24.61V246.37h-130.8v-22.661zM971.474 200.094H864.373v-63.45h80.211v-20.752h-80.211V93.947h104.822v63.688h-80.44v20.991h82.719zm34.864-112.11h24.61V203.91h-24.61zm.456 161.248h-107.1v20.99h107.1zm-131.256-38.165h24.155v17.174h107.101v-17.174h24.155v80.624h-155.41zM1207.552 161.452v-46.753H1079.03V92.277h153.132v69.175zm39.65 13.835v22.422h-182.3v-22.422h70.413v-33.872h24.61v33.872zm-64.489 79.431q0-11.45-7.748-19.56-7.747-8.11-18.685-8.11-11.166 0-19.142 8.11-7.747 8.11-7.747 19.56t7.747 19.56q7.976 8.349 19.142 8.349 10.938 0 18.685-8.349 7.748-8.11 7.748-19.56zm24.61 0q0 10.257-4.101 19.321-4.102 9.303-10.938 15.982-7.292 6.918-16.407 10.973-9.115 4.055-19.597 4.055-10.71 0-20.053-4.055-9.115-4.055-16.18-10.973-7.063-6.679-11.165-15.982-4.102-9.064-4.102-19.32 0-10.496 4.102-19.322 4.102-9.064 11.166-15.982 7.064-6.679 16.179-10.734 9.343-4.055 20.053-4.055 10.482 0 19.597 4.055 9.115 4.055 16.407 10.734 6.836 6.918 10.938 15.982 4.102 8.826 4.102 19.321zM1285.485 116.608V93.947h156.777v22.66h-68.134l74.287 63.928-16.407 16.935-68.135-58.679-68.134 58.68-16.407-16.936 74.287-63.927zm-12.761 123.798v-22.899h182.3v22.9h-78.845v55.339h-24.839v-55.34zM1560.757 143.323h-54.918v32.202h54.918zm-79.3-50.807h24.382v28.624h54.918V92.516h23.927v104.716h-103.227zm159.968 112.11h-24.61V87.984h24.61v43.651h28.484v25.523h-28.484zm-156.322 12.404h156.322v76.808h-24.61v-53.909h-131.712zM1702.95 90.608h153.132v65.835h-153.131zm128.75 20.99h-104.367v24.092H1831.7zm-64.717 94.221v-14.312h-78.616v-21.23h182.3v21.23h-78.845v14.312h64.26v52.716h-128.749v12.642h131.484v20.991H1702.95V238.26H1831.7v-11.927h-128.75v-20.514zM1986.426 170.04V114.7h-84.54V92.276h108.923v77.762zm35.321 19.797v22.66h-128.749v-22.66h40.334v-46.514h24.382v46.514zm39.878 34.588h-24.61V87.984h24.61V143.8h25.522v23.615h-25.522zm-154.499 67.743v-62.257h24.61v39.596h133.535v22.661z"/></g><g style="font-size:40px;font-family:ROKG;fill:#58595b"><path d="M654.525 400.67q0 10.475 7.118 17.683 7.118 6.92 16.982 6.92 5.49 0 10.067-1.826 4.677-1.922 6.508-4.037v-12.782h-20.846v-9.13h32.336v25.084q-4.067 5.19-11.49 8.553-7.424 3.364-16.575 3.364-14.949 0-25.32-9.707-10.373-9.803-10.373-24.123 0-14.415 10.372-24.122 10.372-9.803 25.32-9.803 16.169 0 25.117 7.88l-4.677 7.977q-8.745-6.63-20.44-6.63-9.863 0-16.981 6.919-7.118 7.304-7.118 17.78zM743.196 434.499q-10.88 0-18.609-7.112-7.728-7.112-7.728-17.491 0-10.476 7.728-17.588 7.729-7.112 18.61-7.112 10.981 0 18.608 7.112 7.728 7.112 7.728 17.588 0 10.38-7.728 17.491-7.627 7.112-18.609 7.112zm0-8.842q6.203 0 10.576-4.42 4.372-4.518 4.372-11.341 0-6.824-4.372-11.34-4.373-4.518-10.576-4.518-6.101 0-10.575 4.517-4.373 4.517-4.373 11.34 0 6.824 4.373 11.341 4.474 4.421 10.575 4.421zM791.294 409.703v23.643h-11.287V386.35h10.88v6.247q1.933-3.268 5.695-5.286 3.864-2.115 8.237-2.115 8.745 0 14.033 5.67 5.39 5.67 5.39 15.185v27.295h-11.288v-24.604q0-7.496-2.644-11.052-2.542-3.652-7.932-3.652-2.745 0-5.39 1.73-2.643 1.73-4.067 4.71-1.627 3.46-1.627 9.225zM874.17 412.971q.305-3.171 0-6.247-.61-5.286-4.17-8.842-3.965-3.94-9.863-3.94-6.508 0-10.372 4.613-3.763 4.517-3.763 11.34 0 6.824 3.763 11.341 3.864 4.517 10.372 4.517 5.898 0 9.863-3.94 3.56-3.556 4.17-8.842zm-15.66 39.115q-11.491 0-19.626-5.478l3.356-8.457q7.626 5.19 16.27 5.19 7.525 0 11.795-4.037 4.373-4.036 4.373-9.034v-2.883q-6.203 7.112-15.66 7.112-10.88 0-17.694-7.304-6.71-7.4-6.71-17.3 0-9.994 6.71-17.298 6.814-7.4 17.694-7.4 8.847 0 15.253 6.727v-5.574h11.288v39.019q0 13.359-7.119 19.99-7.016 6.727-19.93 6.727zM914.031 438.055q0 6.631-3.966 10.283-3.457 3.268-11.49 3.268h-5.085v-8.65h3.254q2.848 0 4.475-1.634 1.423-1.441 1.423-4.324V386.35h11.39zm1.424-66.41q0 2.691-2.136 4.71-2.135 2.018-5.084 2.018t-5.084-2.018q-2.136-2.019-2.136-4.71 0-2.787 2.136-4.805 2.135-2.018 5.084-2.018t5.084 2.018q2.136 2.018 2.136 4.805zM961.417 409.992V386.35h11.288v46.996h-10.88v-6.247q-2.035 3.46-5.492 5.286-4.067 2.114-8.44 2.114-8.745 0-14.135-5.67-5.287-5.67-5.287-15.185V386.35h11.287v24.603q0 7.496 2.542 11.148 2.644 3.556 8.034 3.556 2.745 0 5.389-1.73t4.067-4.709q1.627-3.46 1.627-9.226zM1055.072 433.346l-26.032-53.34v53.34h-11.593v-65.449h17.084l26.133 53.531v-53.53h11.491v65.448zM1107.847 402.976h11.796q0-4.517-3.864-6.824-3.762-2.306-10.88-2.306h-.306q-6.711 0-14.338 2.98l-2.847-8.362q7.83-3.172 17.287-3.268h.203q12.508 0 19.22 4.613 6.71 4.517 6.71 14.416v29.12h-10.778v-5.19q-3.152 2.98-7.83 4.71-4.576 1.634-9.355 1.634-8.847 0-14.44-4.421-5.491-4.517-5.491-11.052 0-7.208 6.915-11.917 6.304-4.133 17.998-4.133zm-3.05 23.066q4.372 0 8.643-2.019 4.271-2.018 6.203-4.709v-7.977h-10.067q-8.542 0-11.897 2.115-3.356 2.306-3.356 5.574 0 3.075 2.745 5.093 2.848 1.923 7.729 1.923zM1159.2 371.165v15.185h10.778v8.553H1159.2v23.93q0 3.46 1.728 4.71 1.729 1.25 4.881 1.25h4.17v8.553h-6.814q-8.033 0-11.694-3.364-3.66-3.46-3.66-10.091v-24.988h-8.542v-8.553h8.542v-15.185zM1180.554 433.346V386.35h11.389v46.996zm12.813-61.7q0 2.69-2.136 4.709-2.135 2.018-5.084 2.018-2.95 0-5.085-2.018-2.135-2.019-2.135-4.71 0-2.787 2.135-4.805 2.136-2.018 5.085-2.018t5.084 2.018q2.136 2.018 2.136 4.805zM1229.364 434.499q-10.88 0-18.609-7.112-7.728-7.112-7.728-17.491 0-10.476 7.728-17.588t18.609-7.112q10.982 0 18.609 7.112 7.728 7.112 7.728 17.588 0 10.38-7.728 17.491-7.627 7.112-18.609 7.112zm0-8.842q6.203 0 10.575-4.42 4.373-4.518 4.373-11.341 0-6.824-4.373-11.34-4.372-4.518-10.575-4.518-6.101 0-10.576 4.517-4.372 4.517-4.372 11.34 0 6.824 4.372 11.341 4.475 4.421 10.576 4.421zM1277.462 409.703v23.643h-11.287V386.35h10.88v6.247q1.932-3.268 5.695-5.286 3.864-2.115 8.237-2.115 8.745 0 14.032 5.67 5.39 5.67 5.39 15.185v27.295h-11.287v-24.604q0-7.496-2.644-11.052-2.542-3.652-7.932-3.652-2.745 0-5.39 1.73-2.643 1.73-4.067 4.71-1.627 3.46-1.627 9.225zM1345.694 402.976h11.796q0-4.517-3.864-6.824-3.762-2.306-10.88-2.306h-.306q-6.711 0-14.338 2.98l-2.847-8.362q7.83-3.172 17.287-3.268h.203q12.508 0 19.22 4.613 6.71 4.517 6.71 14.416v29.12h-10.778v-5.19q-3.152 2.98-7.83 4.71-4.576 1.634-9.355 1.634-8.847 0-14.44-4.421-5.491-4.517-5.491-11.052 0-7.208 6.915-11.917 6.304-4.133 17.998-4.133zm-3.05 23.066q4.372 0 8.643-2.019 4.271-2.018 6.203-4.709v-7.977h-10.067q-8.542 0-11.897 2.115-3.356 2.306-3.356 5.574 0 3.075 2.746 5.093 2.847 1.923 7.728 1.923zM1382.505 433.346v-69.774h11.288v69.774zM1507.988 367.897v65.449h-11.084v-52.667l-18.1 52.667h-10.78l-17.998-52.667v52.667h-11.186v-65.449h17.084l17.49 50.937 17.49-50.937zM1555.17 409.992V386.35h11.288v46.996h-10.88v-6.247q-2.034 3.46-5.492 5.286-4.067 2.114-8.44 2.114-8.745 0-14.134-5.67-5.288-5.67-5.288-15.185V386.35h11.287v24.603q0 7.496 2.542 11.148 2.644 3.556 8.034 3.556 2.745 0 5.39-1.73 2.643-1.73 4.067-4.709 1.627-3.46 1.627-9.226zM1575.711 424.6l7.119-6.824q2.949 3.845 6.508 5.959 3.457 2.018 7.423 2.018 3.864 0 6.406-1.441 2.644-1.538 2.644-3.94 0-2.403-2.542-3.749-2.44-1.441-6-2.595-4.067-1.25-8.338-2.787-5.695-1.922-8.44-4.997-2.644-3.172-2.644-7.112 0-5.767 5.694-9.803 5.797-4.133 13.627-4.133 8.338 0 13.626 3.749 2.745 1.922 4.27 4.9l-6.914 6.344q-1.424-2.21-3.254-3.652-3.356-2.691-8.237-2.691-2.949 0-5.084 1.345-2.136 1.346-2.136 3.268 0 2.018 2.34 3.46 2.44 1.345 7.117 2.69 1.729.481 3.864 1.154 7.22 2.21 10.983 5.766 3.762 3.556 3.762 8.554 0 5.862-6 10.187-6 4.229-15.151 4.229-7.83 0-13.728-3.46-3.966-2.21-6.915-6.439zM1635.3 406.148h27.66q-.204-4.614-4.068-8.362-3.864-3.844-9.864-3.844-6.101 0-10.067 4.133-2.949 3.075-3.66 8.073zm.204 8.36q1.017 4.326 4.27 7.113 4.78 4.132 12.61 4.132 8.237 0 15.456-5.766l3.356 7.88q-8.033 6.632-19.117 6.632-12.61 0-20.541-6.728-7.83-6.823-7.83-17.78 0-10.86 7.017-17.779 7.016-7.016 18.303-7.016 11.186 0 18.202 6.92 7.118 6.92 7.118 17.203 0 2.787-.508 5.19zM1717.667 409.992V386.35h11.288v46.996h-10.88v-6.247q-2.035 3.46-5.492 5.286-4.068 2.114-8.44 2.114-8.745 0-14.135-5.67-5.287-5.67-5.287-15.185V386.35h11.287v24.603q0 7.496 2.542 11.148 2.644 3.556 8.033 3.556 2.746 0 5.39-1.73 2.644-1.73 4.067-4.709 1.627-3.46 1.627-9.226zM1795.662 385.196q8.745 0 13.626 5.67 4.88 5.67 4.88 15.185v27.295h-11.185v-24.604q0-7.496-2.135-11.052-2.136-3.652-7.017-3.652-2.847 0-4.982 1.538-2.136 1.538-3.458 4.517-1.322 3.075-1.322 8.65v24.603h-11.185v-24.604q0-7.496-2.238-11.052-2.135-3.652-6.914-3.652-2.848 0-4.881 1.538-2.034 1.538-3.458 4.517-1.423 3.46-1.423 9.226v-.096 24.123h-11.186V386.35h10.576v6.247q4.169-7.4 12.914-7.4 9.355 0 13.728 8.553 2.542-4.229 6.101-6.343 3.66-2.21 9.559-2.21z"/></g></svg>